<?xml version="1.0" encoding="utf-8"?>
<!-- Generator: Adobe Illustrator 17.0.2, SVG Export Plug-In . SVG Version: 6.00 Build 0)  -->
<!DOCTYPE svg PUBLIC "-//W3C//DTD SVG 1.1//EN" "http://www.w3.org/Graphics/SVG/1.1/DTD/svg11.dtd">
<svg version="1.1" id="Layer_1" xmlns="http://www.w3.org/2000/svg" xmlns:xlink="http://www.w3.org/1999/xlink" x="0px" y="0px"
	 width="400px" height="400px" viewBox="0 0 400 400" enable-background="new 0 0 400 400" xml:space="preserve">
<g>
	<path d="M200,9c25.789,0,50.801,5.049,74.343,15.006c22.743,9.62,43.17,23.393,60.714,40.937
		c17.544,17.544,31.317,37.971,40.937,60.714C385.951,149.199,391,174.211,391,200s-5.049,50.801-15.006,74.343
		c-9.62,22.743-23.393,43.17-40.937,60.714c-17.544,17.544-37.971,31.317-60.714,40.937C250.801,385.951,225.789,391,200,391
		s-50.801-5.049-74.343-15.006c-22.743-9.62-43.17-23.393-60.714-40.937c-17.544-17.544-31.317-37.971-40.937-60.714
		C14.049,250.801,9,225.789,9,200s5.049-50.801,15.006-74.343c9.62-22.743,23.393-43.17,40.937-60.714
		c17.544-17.544,37.971-31.317,60.714-40.937C149.199,14.049,174.211,9,200,9 M200,0C89.543,0,0,89.543,0,200s89.543,200,200,200
		s200-89.543,200-200S310.457,0,200,0L200,0z"/>
</g>
<line fill="none" stroke="#000000" stroke-width="9" stroke-miterlimit="10" x1="61.548" y1="64.688" x2="276.901" y2="379.119"/>
<line fill="none" stroke="#000000" stroke-width="9" stroke-miterlimit="10" x1="339.214" y1="64.688" x2="123.862" y2="379.119"/>
<g>
	<polygon points="102.703,253.911 97.68,253.911 86.205,221.619 74.731,253.911 69.712,253.911 55.056,199.03 61.127,199.03 
		72.61,242.015 83.831,211.243 86.159,211.243 86.205,211.111 86.252,211.243 88.576,211.243 99.867,242.021 111.282,199.03 
		117.359,199.03 	"/>
	<path d="M227.32,137.079h-6.123l-6.645-17.504h-21.504l-6.717,17.504h-6.132l21.145-54.881h2.436l0.143-0.366l0.138,0.366h2.415
		L227.32,137.079z M195.263,113.915h17.098l-8.466-22.264L195.263,113.915z"/>
	<polygon points="344.944,260.164 338.02,260.164 322.684,237.351 307.546,260.164 300.682,260.164 319.278,232.115 
		301.463,205.283 308.473,205.283 322.812,226.921 337.086,205.283 343.935,205.283 326.35,232.043 	"/>
</g>
</svg>
